<?xml version="1.0" encoding="UTF-8"?>
<svg id="calendar" xmlns="http://www.w3.org/2000/svg" viewBox="0 0 100 100">
  <defs>
    <style>
      .cls-1 {
        fill: #288aad;
      }
    </style>
  </defs>
  <path class="cls-1" d="M67.2,34.3l-9.8-.7-3.7-9.2c-.8-2-3.7-2-4.5,0l-3.7,9.2-9.8,.7c-.4,0-.8,.1-1.1,.3-1.2,.7-1.6,2.5-.6,3.7,0,0,.2,.2,.3,.3l7.6,6.3-2.4,9.6c-.4,1.6,.8,2.9,2.2,3,.5,0,1,0,1.4-.4l8.4-5.2,8.4,5.2c.1,0,.2,.1,.4,.2,0,0,.2,0,.3,0,0,0,0,0,0,0,1.7,.4,3.4-1.1,2.9-2.9l-2.4-9.6,7.6-6.3c1.7-1.4,.8-4.1-1.4-4.3Z"/>
  <path class="cls-1" d="M29.7,6.7c-.4-.8,0-1.8,.7-2.2C35.8,1.9,41.5,.4,47.4,0c0,0,0,0,.1,0,.9,0,1.6,.7,1.6,1.6v7.6c0,.8-.6,1.5-1.5,1.6-4.2,.3-8.2,1.4-12,3.2-.8,.4-1.7,0-2.1-.6l-3.8-6.5s0,0,0,0ZM10.2,64.5c.4,.8,1.4,1.1,2.2,.7,0,0,0,0,0,0l6.6-3.8c.7-.4,1-1.3,.6-2.1-1.8-3.8-2.9-7.8-3.2-12,0-.8-.8-1.5-1.6-1.5H7.3c-.9,0-1.6,.7-1.6,1.6,0,0,0,0,0,.1,.4,5.9,1.9,11.6,4.5,16.9Zm-3-21s0,0,.1,0h7.6c.8,0,1.5-.6,1.6-1.5,.4-4.2,1.4-8.2,3.2-12,.4-.8,0-1.7-.7-2.1l-6.6-3.8c-.8-.4-1.8-.2-2.2,.6,0,0,0,0,0,0-2.6,5.3-4.2,11-4.5,16.9,0,.9,.6,1.7,1.5,1.7Zm91.6,5.4c-.4-.9-1.3-1.4-2.2-1.4h-1.6c0-.9,0-1.9,0-2.8,0-11.4-4.3-22.3-12.2-30.7C75.1,5.7,64.5,.7,53.2,0c-.9,0-1.7,.6-1.7,1.5,0,0,0,0,0,.1v7.6c0,.8,.6,1.5,1.5,1.6,17.6,1.4,31.3,16.2,31.3,33.9s0,1.9-.1,2.8h-1c-1,0-1.8,.5-2.2,1.4-.4,.9-.3,1.9,.3,2.6l6.7,8.5c.5,.6,1.2,.9,2,.9,.8,0,1.5-.3,1.9-.9l6.7-8.5c.6-.8,.7-1.8,.3-2.6ZM13.5,22.1s0,0,0,0l6.6,3.8c.7,.4,1.7,.2,2.1-.5,2.4-3.5,5.3-6.4,8.7-8.8,.7-.5,.9-1.4,.5-2.1l-3.8-6.5c-.4-.8-1.4-1-2.2-.6,0,0,0,0,0,0-4.9,3.3-9.1,7.5-12.4,12.4-.5,.7-.3,1.7,.4,2.2Zm72.5,44c1.7,2.9,.9,7-1.8,8.7l-28.2,17.4c-2,1.2-4.1,1.8-6.3,1.8s-2.2-.1-3.3-.4l-19.8-5.3-2.4,1.4,1.2,2.1c.5,.9,.6,2,.4,3-.3,1-.9,1.8-1.8,2.4l-4.4,2.5c-.6,.3-1.2,.5-1.9,.5s-.7,0-1.1-.1c-1-.3-1.8-.9-2.4-1.8L1.5,75.4c-1.1-1.9-.4-4.3,1.5-5.3l4.4-2.5c.9-.5,2-.6,3-.4,1,.3,1.8,.9,2.4,1.8l1,1.7,11.4-6.6c3-1.8,6.7-3.4,10.8-2.1,1,.3,2.2,.7,3.4,1.2,3.5,1.3,7.9,2.9,12.4,3.7,0,0,.1,0,.2,0,3.2,1,5,4.2,4.2,7.3-.1,.4-.3,.8-.5,1.2,.6-.2,1.2-.5,1.8-.8l15.6-9.1c9-5.2,12.4-1.1,13.3,.3Zm-2.8,1.7c-1.2-2-4.5-1.7-8.9,.8l-15.6,9.1c-2.4,1.4-5.1,1.9-8,1.4l-1.9-.3s-4.7-1.1-7.1-1.8c-1.1-.3-2.2-.6-3.3-.9-.8-.2-1.3-1.1-1.1-1.9,.2-.9,1.1-1.4,2-1.2,1.2,.3,2.3,.6,3.4,.9,2.3,.7,4.5,1.3,6.7,1.7,1.3,.1,2.8,0,3.3-2,.4-1.4-.5-2.9-2-3.4-4.7-.9-9.2-2.5-12.8-3.8-1.3-.5-2.3-.8-3.3-1.2-2.9-.9-5.6,.3-8.2,1.8l-11.4,6.6,7.5,13.2,2.9-1.7c.4-.2,.8-.3,1.2-.2l20.5,5.5c2.5,.7,4.9,.3,7.1-1l28.2-17.4c1.2-.7,1.5-2.9,.7-4.3Z"/>
</svg>