<?xml version="1.0" encoding="UTF-8"?>
<svg id="calendar" xmlns="http://www.w3.org/2000/svg" viewBox="0 0 100 100">
  <defs>
    <style>
      .cls-1 {
        fill: #288aad;
      }
    </style>
  </defs>
  <path class="cls-1" d="M60.1,55h17.6v3.1h-17.6v-3.1Zm0,9.3h17.6v-3.1h-17.6v3.1Zm0,6.2h17.6v-3.1h-17.6v3.1Zm0,6.2h17.6v-3.1h-17.6v3.1Zm17.6-26.3v-6.2c0-.9-.7-1.5-1.5-1.5h-14.5c-.9,0-1.5,.7-1.5,1.5v6.2c0,.9,.7,1.5,1.5,1.5h14.5c.9,0,1.5-.7,1.5-1.5Zm-26.6,11.2c2-1,3.3-3,3.3-5.3v-2.3c0-.9-.4-1.7-1.2-2.3-.4-.3-.9-.5-1.4-.5,0-.7,0-1.5,0-2.3,0-3.6-1.3-7.2-3.9-9.8-2.6-2.6-6-4.1-9.7-4.1h0c-3.6,0-7.1,1.5-9.7,4.1-2.6,2.6-4,6.2-3.9,9.8,0,.8,0,1.6,0,2.3-.5,0-1,.2-1.4,.5-.8,.5-1.2,1.4-1.2,2.3v2.3c0,2.3,1.3,4.4,3.4,5.3,.4,2.8,1,4.7,1.7,5.7,.3,.5,.7,1,1.2,1.6,0,0,0,0,0,0v6.1c0,.2,0,.3,0,.5l-3.7,1.3c-.7,.2-1,1-.8,1.6,.2,.5,.7,.9,1.2,.9s.3,0,.4,0l3.6-1.3c.7,1.2,1.8,2.2,3.1,2.7l5.5,2c.1,0,.3,0,.4,0s.3,0,.4,0l5.5-2c1.4-.5,2.4-1.5,3.1-2.7l3.7,1.3c.2,0,.3,0,.5,0s.3,0,.5-.1c.3-.1,.6-.4,.7-.7,.3-.7,0-1.4-.7-1.7l-3.9-1.4c0-.2,0-.3,0-.5v-6.1s0,0,0,0c.5-.6,.9-1.1,1.2-1.6,.7-1.1,1.3-3,1.7-5.8Zm-5.4,13.4c0,1.4-.9,2.7-2.2,3.2l-5.1,1.8-5.1-1.8c-1.3-.5-2.2-1.8-2.2-3.2v-3.2c1.3,1.3,2.7,2.4,3.9,3,.2,0,.4,.1,.5,.1h5.6c.2,0,.4,0,.5-.1,1.2-.6,2.6-1.7,3.9-3v3.3Zm1.6-9.1c-1.6,2.3-4.5,5.4-6.4,6.4h-5c-2-1.1-4.9-4.2-6.4-6.4-.8-1.2-1.8-5.2-2.1-17.1,0-3,1.1-5.9,3.1-8,2.1-2.1,4.9-3.3,7.9-3.3h0c2.9,0,5.8,1.2,7.8,3.3,2.1,2.1,3.2,5,3.2,8h0c-.3,11.9-1.3,15.9-2.1,17.1ZM85.6,17l-15.2-15c-1.3-1.3-3.1-2-4.9-2H19.3c-3.9,0-7,3.1-7,7V93c0,3.9,3.1,7,7,7h61.4c3.9,0,7-3.1,7-7V22c0-1.9-.7-3.7-2.1-5Zm-17.6-12.5l15.2,15c.7,.7,1,1.6,1,2.5v.7h-14.2c-2.9,0-5.2-2.4-5.2-5.2V3.5h.8c.9,0,1.8,.4,2.5,1Zm12.7,92H19.3c-1.9,0-3.5-1.6-3.5-3.5V7c0-1.9,1.6-3.5,3.5-3.5H61.2v14c0,4.8,3.9,8.8,8.8,8.8h14.2V93c0,1.9-1.6,3.5-3.5,3.5Zm4.4-75.5h-18.4c-.1,0-.2,0-.2-.2V2h-7V20.8c0,4,3.2,7.2,7.2,7.2h18.4v-7Zm-19.6-14l15.2,15V93H19.3V7h46.2m1.3-7H16c-2.1,0-3.7,1.7-3.7,3.7V96.3c0,2.1,1.7,3.7,3.7,3.7H84c2.1,0,3.7-1.7,3.7-3.7V20.6c0-1-.4-1.9-1.1-2.6L69.5,1.1c-.7-.7-1.6-1.1-2.6-1.1h0Z"/>
</svg>