<?xml version="1.0" encoding="UTF-8"?>
<svg id="Layer_1" data-name="Layer 1" xmlns="http://www.w3.org/2000/svg" viewBox="0 0 35 35">
  <defs>
    <style>
      .cls-1 {
        fill: #1a235b;
      }
    </style>
  </defs>
  <path class="cls-1" d="M29.45,0H1.86C.84,0,0,.84,0,1.88v6.33H11.19l4.85-2.44c.08-.04,.18-.06,.27-.06h15.01V1.88C31.31,.84,30.49,0,29.45,0ZM3.94,5.84c-.96,0-1.74-.78-1.74-1.75s.78-1.75,1.74-1.75,1.74,.78,1.74,1.75-.78,1.75-1.74,1.75Zm5.44,0c-.96,0-1.74-.78-1.74-1.75s.78-1.75,1.74-1.75,1.74,.78,1.74,1.75-.78,1.75-1.74,1.75Z"/>
  <path class="cls-1" d="M15.84,31.33l.22-2.31-1.57-1.79c-.31-.34-.49-.79-.49-1.28s.17-.94,.5-1.29l1.56-1.78-.23-2.35c-.07-.47,.06-.96,.36-1.36,.27-.38,.68-.65,1.18-.75l2.27-.5,1.21-2.04c.28-.44,.66-.72,1.11-.86,.41-.12,.83-.11,1.27,.03l.08,.03,2.17,.92,2.25-.95c.43-.14,.85-.15,1.27-.04,.46,.13,.83,.42,1.1,.83l1.22,2.05V8.21h-14.85l-4.84,2.43c-.09,.04-.18,.07-.28,.07H0V30.25c0,1.03,.84,1.87,1.87,1.88H15.9c-.07-.25-.1-.52-.06-.79Z"/>
  <g>
    <path class="cls-1" d="M24.46,28.04h0s0,0,0,0Z"/>
    <path class="cls-1" d="M35,25.94v-.02s-2.13-2.4-2.13-2.4l.32-3.19-1.87-.41-1.25-.27-1.64-2.75s-.02,0-.05,.02l-2.9,1.22-2.89-1.22s-.04-.01-.06-.01c0,0-.01,0-.01,0l-1.62,2.75-3.12,.69,.32,3.19-2.13,2.43,2.13,2.41-.31,3.19,2.61,.57,.5,.11,1.65,2.77s.01-.01,.06-.02l2.88-1.22,2.9,1.22s.06,0,.08,0l1.61-2.75,.51-.11,.74-.16,1.88-.41-.32-3.19,2.13-2.43h0Zm-12.67-.96s0,0,0,0c.27,0,.5,.08,.7,.26l1.43,1.4,3.47-3.46c.2-.2,.43-.29,.71-.29,0,0,0,0,0,0,0,0,0,0,0,0,.27,0,.5,.09,.7,.29,.2,.19,.29,.43,.29,.69s-.09,.5-.29,.7l-4.18,4.17c-.18,.18-.41,.27-.69,.27,0,0,0,0,0,0s0,0,0,0c-.28,0-.5-.08-.69-.27l-2.12-2.11c-.18-.18-.27-.41-.27-.69s.08-.5,.27-.69c.18-.18,.4-.28,.68-.28,0,0,0,0,0,0Z"/>
  </g>
</svg>