<?xml version="1.0" encoding="UTF-8"?>
<svg id="Layer_1" data-name="Layer 1" xmlns="http://www.w3.org/2000/svg" viewBox="0 0 35 35">
  <defs>
    <style>
      .cls-1 {
        fill: #1a235b;
      }
    </style>
  </defs>
  <path class="cls-1" d="M1.88,0C.84,0,0,.84,0,1.86V31.45c0,1.03,.84,1.85,1.88,1.86h3.83V16.26c0-.09,.02-.19,.06-.27l2.44-4.83V0H1.88Zm2.21,11.07c-.97,0-1.75-.78-1.75-1.74s.78-1.74,1.75-1.74,1.75,.78,1.75,1.74-.78,1.74-1.75,1.74Zm0-5.42c-.97,0-1.75-.78-1.75-1.74s.78-1.74,1.75-1.74,1.75,.78,1.75,1.74-.78,1.74-1.75,1.74Z"/>
  <g>
    <path class="cls-1" d="M34.25,23.23h-.57c-.73,0-1.33-.61-1.32-1.34,0-.34,.14-.66,.37-.9l.41-.4c.29-.28,.29-.76,0-1.04h0s-1.03-1.03-1.03-1.03l-.95-.94c-.07-.07-.16-.12-.25-.16-.09-.04-.19-.05-.28-.05s-.19,.02-.28,.05c-.09,.04-.17,.09-.25,.16-.08,.09-.17,.18-.25,.27-.02,.02-.04,.04-.07,.06-.09,.08-.19,.16-.29,.23,0,0-.02,0-.03,.02-.09,.06-.19,.1-.29,.14-.03,0-.05,.02-.08,.03-.11,.03-.22,.06-.34,.06-.05,0-.11,0-.16-.01-.03,0-.06,0-.09,0-.09-.02-.18-.04-.27-.08-.76-.28-.87-1.08-.82-1.78,0-.41-.34-.74-.75-.74h-2.81c-.41,0-.75,.33-.75,.74,.02,.12,.03,.23,.02,.34,0,.03,0,.06,0,.09,0,.1-.01,.19-.03,.28,0,.01,0,.02,0,.04-.02,.1-.05,.19-.09,.28,0,.02-.02,.04-.03,.07-.03,.07-.07,.14-.12,.21,0,.01-.02,.03-.03,.04-.05,.08-.12,.14-.18,.2-.02,.01-.03,.03-.05,.04-.06,.05-.12,.09-.18,.13-.02,.01-.03,.02-.05,.03-.08,.04-.16,.07-.24,.1-.02,0-.03,0-.05,.01-.07,.02-.15,.03-.22,.03-.03,0-.05,0-.08,0-.04,0-.09,0-.13-.01-.03,0-.06,0-.1-.01-.05,0-.09-.03-.14-.04-.03-.01-.06-.02-.09-.03-.05-.02-.1-.05-.16-.08-.03-.01-.05-.03-.08-.04-.08-.05-.16-.1-.24-.17l-.4-.4c-.07-.07-.16-.12-.25-.16-.08-.03-.17-.04-.25-.05,0,0-.02,0-.03,0-.02,0-.03,0-.05,0-.06,0-.13,.02-.19,.04-.02,0-.05,.01-.07,.02-.08,.04-.16,.08-.22,.14l-1.98,1.97c-.29,.29-.29,.76,0,1.05l.41,.4c.51,.52,.5,1.36-.03,1.87-.25,.23-.57,.37-.91,.37h-.57c-.41,0-.75,.33-.75,.74v2.79c0,.41,.34,.74,.75,.74h.57c.74,.01,1.33,.61,1.32,1.35,0,.34-.13,.66-.37,.9l-.41,.4c-.29,.28-.29,.76,0,1.04l1.98,1.97c.07,.07,.15,.12,.23,.15h0c.1,.04,.2,.07,.3,.07s.2-.02,.3-.07h0c.08-.04,.16-.08,.23-.15l.4-.4c.07-.06,.14-.12,.21-.17,.03-.02,.05-.03,.08-.04,.05-.03,.1-.06,.15-.08,.03-.01,.07-.02,.1-.03,.05-.01,.1-.03,.15-.04,.04,0,.07,0,.11-.01,.05,0,.09-.01,.14-.01,.05,0,.1,0,.15,.01,.04,0,.07,0,.11,.01,.05,.01,.1,.03,.15,.04,.03,.01,.07,.02,.1,.03,.05,.02,.1,.05,.15,.08,.03,.02,.06,.03,.08,.05,.07,.05,.14,.11,.21,.17,.07,.07,.13,.15,.18,.24,0,0,0,.01,.01,.02,.05,.08,.09,.17,.12,.26,.04,.12,.07,.25,.07,.38v.56c0,.41,.34,.74,.75,.74h2.81c.41,0,.75-.33,.75-.74v-.56c0-.09,.01-.18,.03-.26,0-.03,.02-.06,.03-.08,0-.01,0-.02,.01-.03h0s.02-.09,.04-.13c.01-.03,.03-.06,.05-.09,.02-.04,.05-.09,.07-.13,.02-.03,.05-.06,.07-.09,.03-.04,.06-.07,.09-.11,.03-.03,.06-.05,.09-.07,.04-.03,.07-.06,.11-.09,.03-.02,.07-.04,.11-.06,.04-.02,.08-.05,.12-.06,.04-.02,.08-.02,.12-.04,.04-.01,.09-.03,.13-.04,.04,0,.08,0,.13-.01,.05,0,.1-.01,.15-.01,.34,0,.66,.14,.91,.37l.4,.4c.15,.15,.34,.22,.53,.22s.38-.07,.53-.22l.37-.37h0s0,0,0,0l1.6-1.59c.29-.28,.29-.76,0-1.04-.55-.41-.79-.91-.79-1.37,0-.09,.01-.18,.03-.27,0-.03,.02-.06,.03-.08,.02-.06,.04-.12,.06-.17,.02-.03,.04-.06,.05-.09,.03-.05,.06-.09,.09-.14,.02-.03,.05-.06,.08-.09,.04-.04,.08-.08,.12-.11,.03-.03,.07-.05,.1-.07,.05-.03,.1-.06,.15-.09,.04-.02,.08-.04,.12-.05,.06-.02,.12-.04,.18-.06,.04-.01,.09-.03,.14-.03,.07-.01,.14-.02,.21-.03,.05,0,.1-.01,.15-.01,.02,0,.03,0,.04,0,.11,0,.22,0,.33,.02,.41,0,.75-.33,.75-.74v-2.79c0-.41-.34-.74-.75-.74Zm-5.31,2.82c-.03,.17-.07,.34-.12,.5,0,.02-.01,.04-.02,.07-.03,.1-.07,.19-.11,.28-.01,.02-.02,.05-.03,.08-.09,.19-.2,.37-.31,.54-.02,.03-.04,.06-.06,.09-.05,.06-.1,.12-.15,.18-.03,.03-.05,.06-.08,.09-.06,.07-.13,.13-.19,.19-.02,.02-.04,.04-.06,.06-.06,.05-.13,.1-.19,.15-.03,.02-.05,.04-.08,.06-.07,.05-.15,.1-.22,.14-.02,.01-.04,.03-.07,.04-.06,.03-.12,.06-.18,.1-.04,.02-.08,.04-.12,.06-.06,.03-.12,.05-.18,.07-.05,.02-.09,.04-.14,.05-.06,.02-.12,.04-.18,.05-.05,.02-.1,.03-.15,.05-.05,.01-.11,.02-.16,.03-.06,.01-.12,.03-.18,.04-.05,0-.1,.01-.15,.02-.06,0-.13,.02-.19,.02-.04,0-.09,0-.13,0-.07,0-.14,0-.21,0,0,0,0,0,0,0-.05,0-.11,0-.16,0-.06,0-.12,0-.18,0-.05,0-.1-.01-.14-.02-.07,0-.13-.01-.2-.02-.04,0-.09-.02-.13-.03-.07-.01-.14-.03-.2-.04-.04-.01-.08-.02-.12-.04-.07-.02-.14-.04-.21-.06-.04-.01-.08-.03-.11-.05-.07-.03-.14-.05-.2-.08-.04-.02-.08-.04-.12-.06-.06-.03-.13-.06-.19-.1-.05-.03-.1-.06-.14-.09-.05-.03-.1-.06-.15-.09-.04-.03-.08-.06-.12-.09-.05-.04-.1-.08-.15-.12-.02-.02-.04-.04-.06-.06-.06-.06-.13-.12-.19-.18-.02-.02-.04-.05-.06-.07-.06-.07-.12-.13-.17-.2,0,0,0-.01-.01-.02-.07-.09-.13-.19-.19-.29-.02-.04-.04-.08-.06-.12-.04-.07-.08-.14-.11-.21-.02-.04-.03-.08-.05-.13-.03-.08-.06-.15-.09-.23-.01-.04-.02-.09-.04-.13-.1-.34-.17-.71-.18-1.11,.07-2.14,1.48-3.35,3.05-3.62,.23-.04,.45-.06,.68-.06,.34,0,.69,.04,1.02,.13,.55,.14,1.07,.41,1.51,.79,.17,.15,.33,.33,.48,.52,.43,.57,.71,1.32,.74,2.24,0,.24-.04,.46-.08,.68Z"/>
    <path class="cls-1" d="M15.95,32.68c-.54-.53-.85-1.23-.85-1.99,0-.44,.1-.87,.29-1.26-1.12-.38-1.93-1.43-1.93-2.67v-2.79c0-1.23,.81-2.28,1.93-2.67-.51-1.04-.33-2.35,.54-3.24l2-1.99c.54-.52,1.25-.81,2-.81,.44,0,.87,.1,1.25,.28,.38-1.11,1.45-1.9,2.69-1.9h2.81c1.25,0,2.31,.8,2.69,1.9,.38-.19,.81-.28,1.25-.28,.53,0,1.03,.15,1.48,.42V1.86c0-1.03-.84-1.86-1.87-1.86H10.71V11.3c0,.1-.02,.19-.07,.28l-2.43,4.83v16.9h8.38l-.64-.63Z"/>
  </g>
</svg>