<?xml version="1.0" encoding="UTF-8"?>
<svg id="calendar" xmlns="http://www.w3.org/2000/svg" viewBox="0 0 100 100">
  <defs>
    <style>
      .cls-1 {
        fill: #288aad;
      }
    </style>
  </defs>
  <path class="cls-1" d="M95,42.5h-16.3c.8-.9,1.3-2.1,1.3-3.3V7.5c0-2.8-2.2-5-5-5h-31.7c-1.3,0-2.5,.5-3.4,1.4l-15.4,10.8c-1.8,.8-2.9,2.6-2.9,4.5v23.3c-1.3,0-2.5,.5-3.4,1.4L2.9,54.6C1.1,55.5,0,57.2,0,59.2v33.3C0,95.3,2.2,97.5,5,97.5H40c1.2,0,2.4-.5,3.3-1.3,.9,.8,2.1,1.3,3.3,1.3h35c1.4,0,2.6-.6,3.6-1.5l13.3-13.3c.9-.9,1.5-2.2,1.5-3.5v-31.7c0-2.8-2.2-5-5-5Zm-11.1,12.2c-.7-.4-1.4-.5-2.2-.5h-14.6l8.3-8.3h18.6l-10.1,8.9Zm-43.9-.5h-13.3c-.9,0-1.7-.7-1.7-1.7V19.2c0-.9,.7-1.7,1.7-1.7H61.7c.9,0,1.7,.7,1.7,1.7V52.5c0,.4-.2,.9-.5,1.2h0c-.3,.3-.7,.5-1.2,.5h-21.7Zm26.2-37.1l10.5-9.1v31.2c0,.4-.2,.9-.5,1.2l-9.5,9.5V19.2c0-.7-.2-1.4-.5-2.1Zm-2.3-2.4c-.7-.4-1.4-.5-2.2-.5h-11.8l10.7-8.3h13.5l-10.1,8.9ZM41.9,6.5c0,0,.2-.1,.2-.2,.3-.3,.7-.5,1.2-.5h11.8l-10.7,8.3h-13.4l10.9-7.7ZM20.3,46.5c0,0,.2-.1,.2-.2,.3-.3,.7-.5,1.2-.5v6.7c0,.6,.1,1.1,.3,1.7H9.4l10.9-7.7ZM5,94.2c-.9,0-1.7-.7-1.7-1.7V59.2c0-.9,.7-1.7,1.7-1.7H40c.9,0,1.7,.7,1.7,1.7v33.3c0,.4-.2,.9-.5,1.2h0c-.3,.3-.7,.5-1.2,.5H5Zm41.7,0c-.9,0-1.7-.7-1.7-1.7V59.2c0-.9,.7-1.7,1.7-1.7h35c.9,0,1.7,.7,1.7,1.7v33.3c0,.4-.2,.8-.5,1.1h0s0,0,0,0c-.3,.3-.7,.5-1.1,.5H46.7Zm49.5-13.8l-9.5,9.5v-30.7c0-.7-.2-1.4-.5-2.1l10.5-9.1v31.2c0,.4-.2,.9-.5,1.2Z"/>
  <path class="cls-1" d="M38.3,40.8h-6.7c-1.8,0-3.3,1.5-3.3,3.3v3.3c0,1.8,1.5,3.3,3.3,3.3h6.7c1.8,0,3.3-1.5,3.3-3.3v-3.3c0-1.8-1.5-3.3-3.3-3.3Zm-6.7,6.7v-3.3h6.7v3.3h-6.7Zm26.7-6.7h-5c-.9,0-1.7,.7-1.7,1.7s.7,1.7,1.7,1.7h5c.9,0,1.7-.7,1.7-1.7s-.7-1.7-1.7-1.7Zm0,6.7h-5c-.9,0-1.7,.7-1.7,1.7s.7,1.7,1.7,1.7h5c.9,0,1.7-.7,1.7-1.7s-.7-1.7-1.7-1.7ZM16.7,80.8h-6.7c-1.8,0-3.3,1.5-3.3,3.3v3.3c0,1.8,1.5,3.3,3.3,3.3h6.7c1.8,0,3.3-1.5,3.3-3.3v-3.3c0-1.8-1.5-3.3-3.3-3.3Zm-6.7,6.7v-3.3h6.7v3.3h-6.7Zm26.7-6.7h-5c-.9,0-1.7,.7-1.7,1.7s.7,1.7,1.7,1.7h5c.9,0,1.7-.7,1.7-1.7s-.7-1.7-1.7-1.7Zm0,6.7h-5c-.9,0-1.7,.7-1.7,1.7s.7,1.7,1.7,1.7h5c.9,0,1.7-.7,1.7-1.7s-.7-1.7-1.7-1.7Zm21.7-6.7h-6.7c-1.8,0-3.3,1.5-3.3,3.3v3.3c0,1.8,1.5,3.3,3.3,3.3h6.7c1.8,0,3.3-1.5,3.3-3.3v-3.3c0-1.8-1.5-3.3-3.3-3.3Zm-6.7,6.7v-3.3h6.7v3.3h-6.7Zm26.7-6.7h-5c-.9,0-1.7,.7-1.7,1.7s.7,1.7,1.7,1.7h5c.9,0,1.7-.7,1.7-1.7s-.7-1.7-1.7-1.7Zm0,6.7h-5c-.9,0-1.7,.7-1.7,1.7s.7,1.7,1.7,1.7h5c.9,0,1.7-.7,1.7-1.7s-.7-1.7-1.7-1.7Z"/>
</svg>