<?xml version="1.0" encoding="UTF-8"?>
<svg id="calendar" xmlns="http://www.w3.org/2000/svg" viewBox="0 0 100 100">
  <defs>
    <style>
      .cls-1 {
        fill: #288aad;
      }
    </style>
  </defs>
  <path class="cls-1" d="M24.4,23.8h1.4c2.2,0,3.9-1.8,3.9-3.9V4.9c0-2.2-1.8-3.9-3.9-3.9h-1.4c-2.2,0-3.9,1.8-3.9,3.9v14.9c0,2.2,1.8,3.9,3.9,3.9Zm50.5,0h1.4c2.2,0,3.9-1.8,3.9-3.9V4.8c0-2.2-1.8-3.9-3.9-3.9h-1.4c-2.2,0-3.9,1.8-3.9,3.9v14.9c0,2.2,1.8,3.9,3.9,3.9Z"/>
  <path class="cls-1" d="M93.6,9h-10.1v11.8c0,3.9-3.2,6.1-7.1,6.1h-1.4c-3.9,0-7.1-3.2-7.1-7.1V9H33v10.9c0,3.9-3.2,7.1-7.1,7.1h-1.4c-3.9,0-7.1-3.2-7.1-7.1V9H6.4c-3.5,0-6.4,2.9-6.4,6.4V92.7c0,3.5,2.9,6.4,6.4,6.4H93.6c3.5,0,6.4-2.9,6.4-6.4V15.4c0-3.5-2.9-6.4-6.4-6.4h0Zm0,83.7H6.4V34.3s87.2,0,87.2,0v58.4s0,0,0,0Z"/>
  <path class="cls-1" d="M53.3,53.9h11.5c.5,0,.8-.4,.8-.8v-10c0-.5-.4-.8-.8-.8h-11.5c-.5,0-.8,.4-.8,.8v10c0,.5,.4,.8,.8,.8Zm18.8,0h11.5c.5,0,.8-.4,.8-.8v-10c0-.5-.4-.8-.8-.8h-11.5c-.5,0-.8,.4-.8,.8v10c0,.5,.4,.8,.8,.8ZM15.8,70.2h11.5c.5,0,.8-.4,.8-.8v-10c0-.5-.4-.8-.8-.8H15.8c-.5,0-.8,.4-.8,.8v10c0,.5,.4,.8,.8,.8Zm18.8,0h11.5c.5,0,.8-.4,.8-.8v-10c0-.5-.4-.8-.8-.8h-11.5c-.5,0-.8,.4-.8,.8v10c0,.5,.4,.8,.8,.8Zm18.8,0h11.5c.5,0,.8-.4,.8-.8v-10c0-.5-.4-.8-.8-.8h-11.5c-.5,0-.8,.4-.8,.8v10c0,.5,.4,.8,.8,.8Zm18.8,0h11.5c.5,0,.8-.4,.8-.8v-10c0-.5-.4-.8-.8-.8h-11.5c-.5,0-.8,.4-.8,.8v10c0,.5,.4,.8,.8,.8Zm-44.8,4.7H15.8c-.5,0-.8,.4-.8,.8v10c0,.5,.4,.8,.8,.8h11.5c.5,0,.8-.4,.8-.8v-10c0-.5-.4-.8-.8-.8h0Zm18.8,0h-11.5c-.5,0-.8,.4-.8,.8v10c0,.5,.4,.8,.8,.8h11.5c.5,0,.8-.4,.8-.8v-10c0-.5-.4-.8-.8-.8Zm18.8,0h-11.5c-.5,0-.8,.4-.8,.8v10c0,.5,.4,.8,.8,.8h11.5c.5,0,.8-.4,.8-.8v-10c0-.5-.4-.8-.8-.8Zm18.8,0h-11.5c-.5,0-.8,.4-.8,.8v10c0,.5,.4,.8,.8,.8h11.5c.5,0,.8-.4,.8-.8v-10c0-.5-.4-.8-.8-.8Z"/>
</svg>