<?xml version="1.0" encoding="utf-8"?>
<!-- Generator: Adobe Illustrator 24.0.0, SVG Export Plug-In . SVG Version: 6.00 Build 0)  -->
<svg version="1.1" id="calendar" xmlns="http://www.w3.org/2000/svg" xmlns:xlink="http://www.w3.org/1999/xlink" x="0px" y="0px"
	 viewBox="0 0 100 100" style="enable-background:new 0 0 100 100;" xml:space="preserve">
<style type="text/css">
	.st0{fill:#87ADE7;}
	.st1{fill:url(#SVGID_1_);}
	.st2{fill:url(#SVGID_2_);}
</style>
<path class="st0" d="M56.2,17.5h15.4v3.1H56.2C56.2,20.6,56.2,17.5,56.2,17.5z M56.2,23.6h15.4v3.1H56.2
	C56.2,26.7,56.2,23.6,56.2,23.6z M56.2,29.8h15.4v3.1H56.2C56.2,32.9,56.2,29.8,56.2,29.8z M56.2,36h15.4v3.1H56.2
	C56.2,39.1,56.2,36,56.2,36z M48.5,20.6h-1.5c-0.8,0-1.5-0.7-1.5-1.5v-0.6c1-1.1,1.5-2.6,1.5-4.1v-3.1c0-3.4-2.8-6.2-6.2-6.2
	s-6.2,2.8-6.2,6.2v3.1c0,1.5,0.6,2.9,1.5,4.1V19c0,0.9-0.7,1.5-1.5,1.5H33c-2.6,0-4.6,2.1-4.6,4.6v4.6h3.1v-4.6
	c0-0.9,0.7-1.5,1.5-1.5h1.5c2.1,0,3.9-1.4,4.4-3.4c1.1,0.4,2.3,0.4,3.5,0c0.6,2,2.4,3.4,4.4,3.4h1.5c0.8,0,1.5,0.7,1.5,1.5v4.6h3.1
	v-4.6C53.1,22.6,51,20.6,48.5,20.6L48.5,20.6z M37.6,14.4v-3.1c0-1.7,1.4-3.1,3.1-3.1s3.1,1.4,3.1,3.1v3.1c0,1.7-1.4,3.1-3.1,3.1
	S37.6,16.1,37.6,14.4z M70.1,14.4H57.7c-0.8,0-1.5-0.7-1.5-1.6V6.7c0-0.8,0.7-1.5,1.5-1.5h12.4c0.8,0,1.6,0.7,1.6,1.6v6.2
	C71.6,13.7,70.9,14.4,70.1,14.4z M59.3,11.3h9.3V8.2h-9.3C59.3,8.2,59.3,11.3,59.3,11.3z"/>
<linearGradient id="SVGID_1_" gradientUnits="userSpaceOnUse" x1="36.6693" y1="63.9196" x2="47.3307" y2="70.0804" gradientTransform="matrix(1 0 0 -1 0 102)">
	<stop  offset="0" style="stop-color:#4A6DC4"/>
	<stop  offset="1" style="stop-color:#16296F"/>
</linearGradient>
<polygon class="st1" points="52,40 42,40 32,30 42,30 "/>
<linearGradient id="SVGID_2_" gradientUnits="userSpaceOnUse" x1="50" y1="100" x2="50" y2="30">
	<stop  offset="0.2" style="stop-color:#4A6DC4"/>
	<stop  offset="1" style="stop-color:#16296F"/>
</linearGradient>
<path class="st2" d="M92,40H42L32,30H8c-4.4,0-8,3.6-8,8v53c0,5,4,9,9,9h82c5,0,9-4,9-9V48C100,43.6,96.4,40,92,40z M70.5,73.1
	c0,1.6-1.3,2.9-2.9,2.9H56.8v10.7c0,1.6-1.3,2.9-2.9,2.9h-7.8c-1.6,0-2.9-1.3-2.9-2.9V76.1H32.4c-1.6,0-2.9-1.3-2.9-2.9v-7.8
	c0-1.6,1.3-2.9,2.9-2.9h10.7V51.7c0-1.6,1.3-2.9,2.9-2.9h7.8c1.6,0,2.9,1.3,2.9,2.9v10.7h10.7c1.6,0,2.9,1.3,2.9,2.9V73.1z"/>
</svg>
