<?xml version="1.0" encoding="utf-8"?>
<!-- Generator: Adobe Illustrator 24.0.0, SVG Export Plug-In . SVG Version: 6.00 Build 0)  -->
<svg version="1.1" id="calendar" xmlns="http://www.w3.org/2000/svg" xmlns:xlink="http://www.w3.org/1999/xlink" x="0px" y="0px"
	 viewBox="0 0 100 100" style="enable-background:new 0 0 100 100;" xml:space="preserve">
<style type="text/css">
	.st0{fill:url(#SVGID_1_);}
	.st1{fill:#87ADE7;stroke:#87ADE7;stroke-width:1.82;stroke-miterlimit:10;}
	.st2{fill:#87ADE7;stroke:#87ADE7;stroke-width:1.95;stroke-miterlimit:10;}
	.st3{fill:#87ADE7;stroke:#87ADE7;stroke-width:2;stroke-miterlimit:10;}
	.st4{fill:#4A6DC4;}
	.st5{fill:none;stroke:#20367F;stroke-width:2;stroke-miterlimit:10;}
	.st6{fill:#20367F;}
</style>
<g>
	
		<linearGradient id="SVGID_1_" gradientUnits="userSpaceOnUse" x1="50" y1="102" x2="50" y2="9.49" gradientTransform="matrix(1 0 0 -1 0 102)">
		<stop  offset="0.2" style="stop-color:#4A6DC4"/>
		<stop  offset="1" style="stop-color:#16296F"/>
	</linearGradient>
	<path class="st0" d="M90.1,92.5H9.9c-5.5,0-9.9-4.4-9.9-9.9V9.9C0,4.4,4.4,0,9.9,0h80.2c5.5,0,9.9,4.4,9.9,9.9v72.7
		C100,88.1,95.6,92.5,90.1,92.5z M9.9,8.3C9,8.3,8.3,9,8.3,9.9v72.7c0,0.9,0.7,1.7,1.7,1.7h80.2c0.9,0,1.7-0.7,1.7-1.7V9.9
		c0-0.9-0.7-1.7-1.7-1.7H9.9z"/>
</g>
<g>
	<rect x="18.4" y="21.8" class="st1" width="23.3" height="2.3"/>
	<rect x="18.4" y="32.1" class="st1" width="23.3" height="2.3"/>
	<rect x="18.4" y="52.6" class="st1" width="23.3" height="2.3"/>
	<rect x="51.7" y="61.7" class="st2" width="29.9" height="2.2"/>
	<rect x="48.5" y="70.6" class="st2" width="33.1" height="2.2"/>
	<polygon class="st3" points="52.4,52.6 64,37.6 73.9,37.6 80.8,26.9 78.9,25.7 72.6,35.3 62.8,35.3 50.8,50.8 50.8,21.8 48.5,21.8 
		48.5,54.9 81.6,54.9 81.6,52.6 	"/>
</g>
<g>
	<path class="st4" d="M52.2,81.6l-13.4-5.3l-3.1-2.7c-0.8-0.7-2.1-0.7-2.8,0.1L28.4,78L24,73.7c-0.8-0.8-2-0.8-2.8-0.1l-3.1,2.7
		L4.7,81.6C0.4,83.3,0.4,98.6,0,100h56.9C56.5,98.6,56.5,83.3,52.2,81.6L52.2,81.6L52.2,81.6z M41.3,59.8h2.5c1.5,0,2.8-1.3,2.8-2.8
		v-6.3c0-1-0.5-1.8-1.3-2.3c-0.9-7.8-8.1-13.9-16.9-13.9s-15.9,6.1-16.9,13.8c-0.8,0.5-1.3,1.4-1.3,2.3V57c0,1.5,1.3,2.8,2.8,2.8
		h2.5c1.6,8.1,7.1,12.7,12.8,12.7c3.4,0,6.4-1.6,6.4-1.6c3.4-2,4.6-5.2,5-6.2 M28.4,37.7c6.9,0,12.6,4.5,13.6,10.4
		c-0.3,0.1-0.6,0.3-0.9,0.5c-1.6-5.2-6.4-8.3-12.7-8.3s-11.1,3.1-12.8,8.3c-0.3-0.2-0.6-0.4-0.9-0.5C15.8,42.2,21.5,37.7,28.4,37.7
		L28.4,37.7L28.4,37.7z"/>
	<g>
		<path class="st5" d="M43.1,59.8v6.7c0,0.5-0.4,0.9-0.9,0.9h-11"/>
		<path class="st6" d="M27.2,65.1h3.2c0.9,0,1.6,0.7,1.6,1.6v1.5c0,0.9-0.7,1.6-1.6,1.6h-3.2c-0.9,0-1.6-0.7-1.6-1.6v-1.5
			C25.6,65.8,26.3,65.1,27.2,65.1z"/>
	</g>
</g>
</svg>
