<?xml version="1.0" encoding="UTF-8"?>
<svg id="calendar" xmlns="http://www.w3.org/2000/svg" viewBox="0 0 100 100">
  <defs>
    <style>
      .cls-1 {
        fill: #288aad;
      }
    </style>
  </defs>
  <path class="cls-1" d="M97.3,45.4l-3.8-2.3V27c0-3.1-2.5-5.6-5.6-5.6h-29.9L32.5,5.8c-2.6-1.6-6.1-.8-7.7,1.9l-8.4,13.8h-4.4c-3.1,0-5.6,2.5-5.6,5.6v10.8L.8,46.9c-1.6,2.6-.8,6.1,1.8,7.7t0,0l3.8,2.3v16.1c0,3.1,2.5,5.6,5.6,5.6h29.9l25.5,15.6c1.3,.8,2.8,1,4.2,.7,1.4-.3,2.7-1.2,3.5-2.5l8.4-13.8h4.4c3.1,0,5.6-2.5,5.6-5.6v-10.8l5.6-9.2c1.6-2.6,.8-6.1-1.9-7.7ZM6.4,54.2l-2.5-1.5c-1.5-.9-2-2.9-1.1-4.5l3.6-5.9v11.9ZM26.8,8.9c.9-1.5,2.9-2,4.5-1.1l22.3,13.6H19.2l7.7-12.5Zm17.4,31.5l7.4-3.1c.6-.2,.9-.9,.6-1.5-.2-.6-.9-.9-1.5-.6l-7.3,3c-.5-.9-1.2-1.6-2-2.2,1.6-3.6,5.3-5.9,9.2-6,1.3,0,2.6,.2,3.9,.8l2.6,1.1c1.3,.5,1.9,2,1.3,3.2l-1.1,2.6c-1,2.5-3,4.5-5.5,5.5-2.5,1-5.3,1-7.8,0h-.1c0,0,0,0,0,0,.3-1,.3-2.1,.2-2.7Zm-20.3-3.1l7.4,3.1c0,.3,0,.6,0,.9,0,.6,0,1.2,.3,1.8h-.1c-5.2,2.2-11.1-.3-13.3-5.4l-1.1-2.6c-.5-1.3,0-2.7,1.3-3.2l2.6-1.1c5.1-2.1,10.9,.2,13.1,5.2-.8,.6-1.5,1.3-2,2.2l-7.3-3c-.6-.2-1.3,0-1.5,.6-.2,.6,0,1.3,.6,1.5Zm-3.8,6.6l-1.4,1.4H8.8v-6.4h7.4c.9,2,2.3,3.7,4,5Zm2.1,1.2c.2,0,.3,.2,.5,.2,3.1,1.3,6.5,1.3,9.6,0h.3c.5,.6,1.2,1.2,2,1.7l-9.8,9.8-1.1-5.2c0-.5-.5-.8-.9-.9l-5.2-1.1,4.6-4.6Zm11.4-3.8h0c0-2.3,1.9-4.2,4.2-4.2s4.2,1.9,4.2,4.2h0c0,2.3-1.9,4.2-4.2,4.2s-4.2-1.9-4.2-4.2Zm1-9v-8.6h6.4v8.6c-.7,.8-1.2,1.7-1.7,2.7-.5-.1-1-.2-1.5-.2s-1.1,0-1.5,.2h0c-.4-1-1-1.9-1.7-2.7Zm-25.9-5.3c0-1.8,1.5-3.2,3.2-3.2h20.3v6.3c-3.5-2.6-8.1-3.1-12.2-1.5l-2.6,1.1c-2.5,1-3.6,3.8-2.6,6.3l.2,.6h-6.4v-9.6Zm23.5,49.3H12c-1.8,0-3.2-1.5-3.2-3.2v-25.4h7.7l-1.9,1.9c-.5,.5-.5,1.2,0,1.7,.2,.2,.4,.3,.6,.3l6.5,1.3,1.3,6.5c.1,.6,.8,1,1.4,.9,.2,0,.4-.2,.6-.3l7.3-7.3v23.5Zm8.7,0h-6.4v-25.9l2.6-2.6c.8,0,.8,0,1.2,0l2.6,2.6v25.9Zm0-29.2c.8-.4,1.5-1,2.1-1.8h.3c1.5,.8,3.2,1.1,4.8,1.1s3.2-.3,4.8-1c.2,0,.3-.2,.5-.2l4.6,4.6-5.2,1.1c-.5,0-.8,.4-.9,.9l-1.1,5.2-9.8-9.8Zm32.2,44.1c-.5,.7-1.2,1.3-2,1.5-.8,.2-1.7,0-2.5-.4l-22.3-13.6h34.4l-7.7,12.5Zm18-18.1c0,1.8-1.5,3.2-3.2,3.2H43.4v-23.5l7.3,7.3c.5,.5,1.2,.5,1.7,0,.2-.2,.3-.4,.3-.6l1.3-6.5,6.5-1.3c.6-.1,1-.8,.9-1.4,0-.2-.1-.4-.3-.6l-2.1-2.1h32.2v25.5Zm0-27.9H56.7l-1.2-1.2c1.8-1.3,3.2-3.1,4.1-5.2h31.7v6.4Zm0-8.7h-30.7l.2-.4c1-2.5-.1-5.3-2.6-6.3l-2.6-1.1c-4-1.7-8.6-1.1-12.2,1.5v-6.3h44.6c1.8,0,3.2,1.5,3.2,3.2v9.4Zm6,15.5l-3.6,5.9v-11.9l2.5,1.5c1.5,.9,2,2.9,1.1,4.5Zm-77-8l-1.4,1.4H8.8v-6.4h7.4c.9,2,2.3,3.7,4,5Zm71-5.2v6.4H56.7l-1.2-1.2c1.8-1.3,3.2-3.1,4.1-5.2h31.7Zm-50.2,11.6v25.9h-6.4v-25.9l2.6-2.6c.8,0,.8,0,1.2,0l2.6,2.6Zm0-26.6v8.6c-.7,.8-1.2,1.7-1.7,2.7-.5-.1-1-.2-1.5-.2s-1.1,0-1.5,.2h0c-.4-1-1-1.9-1.7-2.7v-8.6h6.4Z"/>
</svg>